Coordinates
version=1
nRows=4
nColumns=107
inDegrees=yes

Units are S.I. units (second, meters, Newtons, ...)
If the header above contains a line with 'inDegrees', this indicates whether rotational values are in degrees (yes) or radians (no).

endheader
time	sternoclavicular_r2	sternoclavicular_r3	unrotscap_r3	unrotscap_r2	acromioclavicular_r2	acromioclavicular_r3	acromioclavicular_r1	unrothum_r1	unrothum_r3	unrothum_r2	elv_angle	shoulder_elv	shoulder1_r2	shoulder_rot	elbow_flexion	pro_sup	deviation	flexion	proximal_distal_r1	proximal_distal_r3	cmc_flexion	cmc_abduction	mp_flexion	ip_flexion	mcp2_flexion	mcp2_abduction	pm2_flexion	md2_flexion	mcp3_flexion	mcp3_abduction	pm3_flexion	md3_flexion	mcp4_flexion	mcp4_abduction	pm4_flexion	md4_flexion	mcp5_flexion	mcp5_abduction	pm5_flexion	md5_flexion	bicpt_tx	bicpt_ty	bicpt_tz	bicpt2_tx	bicpt2_ty	bicpt2_tz	ptpt_tx	ptpt_ty	ptpt_tz	FCUpt_tx	FCUpt_ty	FCUpt_tz	EDCpt_tx	EDCpt_ty	EDCpt_tz	APLpt_tx	APLpt_ty	APLpt_tz	FPLpt_tx	FPLpt_ty	FPLpt_tz	FPLpt2_tx	FPLpt2_ty	FPLpt2_tz	PEC1pt2_tx	PEC1pt2_ty	PEC1pt2_tz	PEC1pt3_tx	PEC1pt3_ty	PEC1pt3_tz	PEC2pt2_tx	PEC2pt2_ty	PEC2pt2_tz	PEC2pt3_tx	PEC2pt3_ty	PEC2pt3_tz	PEC3pt2_tx	PEC3pt2_ty	PEC3pt2_tz	PEC3pt3_tx	PEC3pt3_ty	PEC3pt3_tz	DELT2pt2a_tx	DELT2pt2a_ty	DELT2pt2a_tz	DELT2pt2_tx	DELT2pt2_ty	DELT2pt2_tz	LAT1pt2_tx	LAT1pt2_ty	LAT1pt2_tz	LAT1pt3_tx	LAT1pt3_ty	LAT1pt3_tz	LAT2pt2_tx	LAT2pt2_ty	LAT2pt2_tz	LAT2pt3_tx	LAT2pt3_ty	LAT2pt3_tz	LAT3pt2_tx	LAT3pt2_ty	LAT3pt2_tz	LAT3pt3_tx	LAT3pt3_ty	LAT3pt3_tz
      1.30000000	     -0.31835190	      0.13483884	     -0.13483884	      0.31835190	     -0.06445978	      0.52094130	      0.23415953	     -0.23415953	     -0.52094130	      0.06445978	    100.05497594	     75.37264139	     -1.74628876	    -27.69659010	     28.93515669	     31.91560137	      0.30659023	     -0.11339767	      0.33914858	     -0.05669884	     23.80218178	     -6.54984201	    -18.80269326	     -5.12116903	    -16.48575731	     12.01412461	     28.77662502	     14.77073032	    -12.10558156	     -1.65782609	     17.70263127	     17.52013353	     -8.15653997	     -2.38561337	      6.89781042	     23.55063846	     -1.76199959	    -14.16487926	     -7.90577596	      5.04542919	      0.00085709	     -0.03091641	     -0.00483419	      0.01648455	     -0.01806038	     -0.00828724	      0.00519180	     -0.06642485	     -0.00262097	      0.00697639	     -0.18365396	     -0.00030442	     -0.00382986	      0.00106146	      0.00018675	      0.00010525	      0.00004210	      0.00021051	      0.00013472	      0.00040417	      0.00022735	      0.00000284	     -0.00028031	     -0.00033637	      0.00247055	      0.00866786	      0.00602982	     -0.00808163	      0.01951316	     -0.01850819	      0.00247055	      0.00866786	      0.00602982	      0.00054436	      0.01808945	     -0.00950534	      0.00391776	      0.00482009	      0.01589338	      0.00000000	      0.00759651	      0.00000000	     -0.00707666	     -0.03270338	     -0.00626262	      0.01782151	     -0.00067925	     -0.00641016	     -0.00087935	      0.01473955	     -0.00602982	      0.00242868	      0.02127185	     -0.01758696	     -0.00590420	      0.01277149	     -0.00540171	     -0.01231088	      0.02696668	     -0.03019096	     -0.02311430	      0.01427894	     -0.00724415	     -0.01532578	      0.03115405	     -0.03772823
      1.33333333	     -0.31822924	      0.13478689	     -0.13478689	      0.31822924	     -0.06443495	      0.52074058	      0.23406931	     -0.23406931	     -0.52074058	      0.06443495	    100.05466264	     75.34360100	     -1.74628330	    -27.80062566	     28.98173922	     32.59501007	      0.32329727	     -0.11737730	      0.35320864	     -0.05868865	     22.31587191	     -6.39522678	    -19.63530854	     -5.27002171	    -15.92421130	     11.81895077	     29.21646867	     14.89515672	    -11.09508324	     -1.76808326	     18.48971564	     17.73113261	     -7.69461651	     -3.15824526	      7.06516833	     23.45749550	     -2.61296838	    -14.17803750	     -8.24831351	      5.04139199	      0.00085863	     -0.03092175	     -0.00483505	      0.01649785	     -0.01807303	     -0.00822208	      0.00514160	     -0.06645731	     -0.00267570	      0.00704317	     -0.18364132	     -0.00031321	     -0.00391139	      0.00108748	      0.00018472	      0.00010856	      0.00004342	      0.00021711	      0.00013895	      0.00041685	      0.00023448	      0.00000623	     -0.00028123	     -0.00033748	      0.00246960	      0.00866452	      0.00602749	     -0.00807852	      0.01950564	     -0.01850106	      0.00246960	      0.00866452	      0.00602749	      0.00054415	      0.01808248	     -0.00950167	      0.00391665	      0.00481823	      0.01589063	      0.00000000	      0.00759062	      0.00000000	     -0.00707393	     -0.03269078	     -0.00625773	      0.01787069	     -0.00068274	     -0.00645795	     -0.00087901	      0.01473387	     -0.00602749	      0.00242774	      0.02126366	     -0.01758019	     -0.00590192	      0.01276657	     -0.00539963	     -0.01230613	      0.02695629	     -0.03017932	     -0.02310539	      0.01427344	     -0.00724136	     -0.01531988	      0.03114205	     -0.03771369
      1.36666667	     -0.31795321	      0.13466997	     -0.13466997	      0.31795321	     -0.06437906	      0.52028889	      0.23386628	     -0.23386628	     -0.52028889	      0.06437906	    100.06790445	     75.27824780	     -1.74651441	    -28.04128872	     29.08153909	     33.39381397	      0.34115026	     -0.12387856	      0.36772826	     -0.06193928	     20.86458095	     -5.99861720	    -20.39832209	     -5.39648405	    -14.85453035	     11.62233641	     29.93842697	     15.09193492	    -10.02589594	     -1.87290757	     19.37083984	     17.97713424	     -7.13736416	     -3.91263696	      7.22089032	     23.32463804	     -3.47592129	    -14.19139137	     -8.54155917	      5.06491496	      0.00086193	     -0.03093319	     -0.00483689	      0.01651215	     -0.01810014	     -0.00814466	      0.00508257	     -0.06649548	     -0.00274005	      0.00712187	     -0.18362629	     -0.00032309	     -0.00400725	      0.00111824	      0.00018202	      0.00011389	      0.00004556	      0.00022779	      0.00014578	      0.00043735	      0.00024601	      0.00000971	     -0.00027976	     -0.00033572	      0.00246746	      0.00865701	      0.00602226	     -0.00807151	      0.01948872	     -0.01848501	      0.00246746	      0.00865701	      0.00602226	      0.00054368	      0.01806679	     -0.00949343	      0.00391415	      0.00481405	      0.01588445	      0.00000000	      0.00757737	      0.00000000	     -0.00706780	     -0.03266242	     -0.00624673	      0.01798407	     -0.00069080	     -0.00656885	     -0.00087825	      0.01472109	     -0.00602226	      0.00242563	      0.02124521	     -0.01756494	     -0.00589680	      0.01275549	     -0.00539495	     -0.01229546	      0.02693291	     -0.03015315	     -0.02308535	      0.01426106	     -0.00723508	     -0.01530659	      0.03111504	     -0.03768098
      1.40000000	     -0.31762899	      0.13453265	     -0.13453265	      0.31762899	     -0.06431341	      0.51975836	      0.23362780	     -0.23362780	     -0.51975836	      0.06431341	    100.09620161	     75.20148755	     -1.74700829	    -28.36792213	     29.18037472	     34.20536363	      0.35697529	     -0.13348260	      0.38016237	     -0.06674130	     19.51158082	     -5.72684541	    -21.01205927	     -5.48854384	    -13.72061296	     11.43347071	     30.67543102	     15.28284658	     -8.87729806	     -1.92493521	     20.24822539	     18.22586825	     -6.55200075	     -4.53604169	      7.35673507	     23.19560817	     -4.26385103	    -14.19945810	     -8.75662631	      5.08070692	      0.00086520	     -0.03094452	     -0.00483871	      0.01652518	     -0.01812699	     -0.00806508	      0.00502261	     -0.06653425	     -0.00280543	      0.00720202	     -0.18361084	     -0.00033264	     -0.00410463	      0.00114970	      0.00017892	      0.00012165	      0.00004866	      0.00024330	      0.00015571	      0.00046714	      0.00026277	      0.00001303	     -0.00027629	     -0.00033155	      0.00246494	      0.00864818	      0.00601612	     -0.00806328	      0.01946885	     -0.01846616	      0.00246494	      0.00864818	      0.00601612	      0.00054312	      0.01804837	     -0.00948375	      0.00391122	      0.00480914	      0.01587718	      0.00000000	      0.00756182	      0.00000000	     -0.00706059	     -0.03262912	     -0.00623382	      0.01813674	     -0.00070178	     -0.00672054	     -0.00087735	      0.01470608	     -0.00601612	      0.00242316	      0.02122355	     -0.01754703	     -0.00589079	      0.01274249	     -0.00538944	     -0.01228292	      0.02690544	     -0.03012240	     -0.02306181	      0.01424652	     -0.00722770	     -0.01529098	      0.03108331	     -0.03764255
